<?xml version="1.0" standalone="no"?>
<!DOCTYPE svg PUBLIC "-//W3C//DTD SVG 20010904//EN"
 "http://www.w3.org/TR/2001/REC-SVG-20010904/DTD/svg10.dtd">
<svg version="1.0" xmlns="http://www.w3.org/2000/svg"
 width="394.000000pt" height="394.000000pt" viewBox="0 0 394.000000 394.000000"
 preserveAspectRatio="xMidYMid meet">
<metadata>
Created by potrace 1.14, written by Peter Selinger 2001-2017
</metadata>
<g transform="translate(0.000000,394.000000) scale(0.100000,-0.100000)"
fill="#000000" stroke="none">
<path d="M2286 2534 l-171 -177 -5 -133 -5 -133 -64 49 c-35 28 -71 50 -81 50
-9 0 -87 -57 -173 -127 l-157 -126 0 -203 0 -202 -35 -4 c-20 -2 -38 -2 -40 1
-3 2 -5 63 -5 135 0 112 -3 136 -20 163 -52 86 -196 83 -241 -4 -9 -18 -16
-76 -19 -163 l-5 -135 -37 -3 -36 -3 -4 100 c-2 82 -7 105 -24 128 -28 38 -78
50 -126 30 -51 -21 -68 -66 -68 -173 l0 -84 -41 0 c-22 0 -38 -4 -34 -9 6 -11
-33 -26 -42 -17 -4 3 2 6 13 6 18 1 18 1 2 11 -10 5 -18 15 -18 20 0 6 5 7 10
4 6 -3 10 -2 10 4 0 5 -6 11 -12 14 -10 3 -10 7 0 19 9 11 10 18 2 23 -15 9
-12 32 5 32 10 0 14 -12 13 -44 0 -24 2 -47 6 -50 3 -4 6 19 6 50 0 34 -4 57
-11 57 -5 0 -8 4 -5 9 3 4 -3 16 -13 25 -18 16 -18 15 -15 -14 3 -21 0 -29 -7
-24 -7 4 -9 0 -5 -12 3 -11 6 -47 7 -82 l2 -62 93 0 94 0 0 106 c0 121 8 144
50 144 42 0 50 -23 50 -144 l0 -106 100 0 100 0 0 150 c0 147 1 152 25 175 32
33 78 33 110 0 24 -23 25 -28 25 -173 l0 -149 90 -7 c49 -4 94 -5 100 -1 6 4
10 83 10 215 l0 209 130 105 c71 58 134 106 140 106 6 0 41 -23 78 -51 l67
-51 5 -266 5 -267 95 0 95 0 3 232 2 231 -65 48 -65 48 0 151 0 150 123 123
c67 67 126 122 130 122 4 0 7 -250 7 -556 l0 -555 98 3 97 3 3 368 2 367 27 0
c21 0 48 -20 115 -87 l88 -88 0 -277 0 -278 100 0 100 0 0 92 0 93 93 -93 92
-92 168 0 c157 0 167 1 167 19 0 28 -18 31 -163 31 l-132 0 -120 120 c-66 66
-127 120 -137 120 -29 0 -38 -34 -38 -145 l0 -106 -32 3 -33 3 -3 270 -2 270
-102 102 -103 103 -71 0 c-56 0 -73 -3 -78 -16 -3 -9 -6 -175 -6 -370 l0 -354
-35 0 -35 0 0 578 c0 581 -1 602 -34 602 -5 0 -86 -79 -180 -176z m-38 -818
l2 -186 -35 0 -35 0 0 211 0 212 33 -25 32 -26 3 -186z"/>
<path d="M800 1696 c0 -2 7 -6 15 -10 8 -3 15 -1 15 4 0 6 -7 10 -15 10 -8 0
-15 -2 -15 -4z"/>
<path d="M769 1643 c-13 -16 -12 -17 4 -4 9 7 17 15 17 17 0 8 -8 3 -21 -13z"/>
<path d="M578 1483 c12 -2 32 -2 45 0 12 2 2 4 -23 4 -25 0 -35 -2 -22 -4z"/>
</g>
</svg>
