<svg xmlns="http://www.w3.org/2000/svg">
    <symbol id="arrow" viewBox="0 0  24 24">
        <path d="M19.9,12.4c0.1-0.2,0.1-0.5,0-0.8c-0.1-0.1-0.1-0.2-0.2-0.3l-7-7c-0.4-0.4-1-0.4-1.4,0s-0.4,1,0,1.4l5.3,5.3H5 c-0.6,0-1,0.4-1,1s0.4,1,1,1h11.6l-5.3,5.3c-0.4,0.4-0.4,1,0,1.4c0.2,0.2,0.5,0.3,0.7,0.3s0.5-0.1,0.7-0.3l7-7v0 C19.8,12.6,19.9,12.5,19.9,12.4z"/>
    </symbol>
    <symbol id="reload" viewBox="0 0  22 22">
        <path d="M19.8,15.6c-2.4,5-8.7,6.8-13.6,4.3c-0.4-0.2-0.6-0.7-0.3-1.1c0.2-0.4,0.7-0.6,1.1-0.3c4.1,2.1,9.3,0.6,11.3-3.5 c2.7-5.5-0.8-9.7-3.6-11.2C11,1.5,6.1,2.9,3.8,6.5l2.8-0.6c0.4-0.1,0.9,0.2,1,0.6C7.7,7,7.5,7.5,7,7.5l-5,1c-0.8,0.1-1-0.7-1-0.9 l0.6-5.1c0-0.4,0.4-0.7,0.8-0.7c0.5,0,0.9,0.5,0.8,1L3,4.9C5.3,2,10-0.5,15.6,2.1C18,3.3,23.4,8.1,19.8,15.6z"/>
    </symbol>
</svg>
