<?xml version="1.0" encoding="utf-8"?>
<!-- Generator: $$$/GeneralStr/196=Adobe Illustrator 27.6.0, SVG Export Plug-In . SVG Version: 6.00 Build 0)  -->
<svg version="1.1" id="Calque_1" xmlns="http://www.w3.org/2000/svg" xmlns:xlink="http://www.w3.org/1999/xlink" x="0px" y="0px"
	 viewBox="0 0 133 57" style="enable-background:new 0 0 133 57;" xml:space="preserve">
<style type="text/css">
	.st0{fill:#254A9A;}
	.st1{fill:url(#SVGID_1_);}
	.st2{fill:none;stroke:#000000;stroke-width:2.2;stroke-miterlimit:10;}
	.st3{fill:none;stroke:#000000;stroke-width:2;stroke-miterlimit:10;}
</style>
<path class="st0" d="M6.1,48.6c-1.8-0.6-2.6-0.9-2.6-2c0-0.9,1.2-1.3,2.3-1.3c0.9,0,1.9,0.3,2.6,0.7c0.2,0.1,0.4,0.1,0.5,0.1
	c0.2,0,0.3-0.2,0.4-0.4l0.3-0.6c0.2-0.3,0.1-0.7-0.2-0.9c-1-0.6-2.4-1-3.6-1c-2.6,0-4.4,1.4-4.4,3.4c0,2.6,2.2,3.3,4,3.9
	c1.9,0.6,2.7,0.9,2.7,2c0,1.1-1.3,1.5-2.5,1.5c-1.2,0-2.5-0.6-3.2-1.4c-0.2-0.1-0.4-0.2-0.6-0.2c-0.2,0-0.4,0.1-0.5,0.3l-0.4,0.6
	c-0.2,0.3-0.1,0.6,0.1,0.8c1.2,1.1,2.9,1.9,4.5,1.9c2.8,0,4.6-1.5,4.6-3.6C10.1,49.9,7.9,49.2,6.1,48.6z"/>
<path class="st0" d="M18.3,43.7c-0.1-0.2-0.3-0.4-0.6-0.4h-0.7c-0.3,0-0.5,0.2-0.6,0.4l-5.2,11.5c-0.1,0.2-0.1,0.5,0,0.6
	c0.1,0.2,0.3,0.3,0.6,0.3h0.7c0.3,0,0.5-0.2,0.6-0.4l1.3-2.9h5.8l1.3,2.9c0.1,0.2,0.3,0.4,0.6,0.4h0.7c0.2,0,0.4-0.1,0.6-0.3
	c0.1-0.2,0.1-0.4,0-0.7L18.3,43.7z M15.3,50.9l2-4.4l2,4.4H15.3z"/>
<path class="st0" d="M26.9,43.4h-0.7c-0.4,0-0.7,0.3-0.7,0.7v11.5c0,0.4,0.3,0.7,0.7,0.7h0.7c0.4,0,0.7-0.3,0.7-0.7V44
	C27.6,43.7,27.3,43.4,26.9,43.4z"/>
<path class="st0" d="M41.1,43.4h-0.7c-0.4,0-0.7,0.3-0.7,0.7v8.4l-6.4-8.8c-0.1-0.2-0.3-0.3-0.5-0.3H32c-0.4,0-0.7,0.3-0.7,0.7v11.5
	c0,0.4,0.3,0.7,0.7,0.7h0.7c0.4,0,0.7-0.3,0.7-0.7v-8.4l6.4,8.8c0.1,0.2,0.3,0.3,0.5,0.3h0.8c0.4,0,0.7-0.3,0.7-0.7V44
	C41.8,43.7,41.5,43.4,41.1,43.4z"/>
<path class="st0" d="M52.8,43.4h-8.4c-0.4,0-0.7,0.3-0.7,0.7v0.7c0,0.4,0.3,0.7,0.7,0.7h3.2v10.1c0,0.4,0.3,0.7,0.7,0.7H49
	c0.4,0,0.7-0.3,0.7-0.7V45.4h3.2c0.4,0,0.7-0.3,0.7-0.7V44C53.5,43.7,53.2,43.4,52.8,43.4z"/>
<path class="st0" d="M57.8,49.6h-3.6c-0.4,0-0.7,0.3-0.7,0.7v0.6c0,0.4,0.3,0.7,0.7,0.7h3.6c0.4,0,0.7-0.3,0.7-0.7v-0.6
	C58.5,49.9,58.2,49.6,57.8,49.6z"/>
<path class="st0" d="M72,49.2h-0.6c0,0,0,0,0,0h-2c-0.4,0-0.7,0.3-0.7,0.7v0.7c0,0.4,0.3,0.7,0.7,0.7h1.4v2.1
	c-0.8,0.5-1.7,0.8-2.7,0.8c-2.5,0-4.6-2-4.6-4.4c0-2.4,2-4.4,4.6-4.4c1.2,0,2.3,0.4,3.1,1.2c0.1,0.1,0.3,0.2,0.5,0.2
	c0.2,0,0.4-0.1,0.5-0.3l0.4-0.5c0.2-0.3,0.2-0.7-0.1-0.9c-1.2-1.1-2.8-1.7-4.4-1.7c-3.6,0-6.6,2.9-6.6,6.4c0,3.6,2.9,6.5,6.6,6.5
	c1.6,0,3.3-0.6,4.5-1.7c0.1-0.1,0.2-0.3,0.2-0.5v-4.2C72.7,49.5,72.3,49.2,72,49.2z"/>
<path class="st0" d="M81.5,43.3c-3.6,0-6.6,2.9-6.6,6.4c0,3.6,2.9,6.5,6.6,6.5c3.6,0,6.6-2.9,6.6-6.5C88.1,46.2,85.1,43.3,81.5,43.3
	z M81.5,54.2c-2.5,0-4.5-2-4.5-4.4c0-2.4,2-4.4,4.5-4.4c2.5,0,4.5,2,4.5,4.4C86,52.2,84,54.2,81.5,54.2z"/>
<path class="st0" d="M98.9,49.4c0.7-0.6,1.1-1.5,1.1-2.5c0-2.2-1.6-3.5-4.2-3.5h-4.7c-0.4,0-0.7,0.3-0.7,0.7v11.5
	c0,0.4,0.3,0.7,0.7,0.7h4.7c3,0,4.8-1.4,4.8-3.8C100.5,51.1,99.9,50,98.9,49.4z M95.7,48.6h-3.3v-3.2h3.3c1,0,2.2,0.3,2.2,1.6
	C97.9,48,97.2,48.6,95.7,48.6z M92.4,50.6h3.3c1,0,2.8,0.2,2.8,1.8c0,1.5-1.5,1.8-2.8,1.8h-3.3V50.6z"/>
<path class="st0" d="M108.8,43.7c-0.1-0.2-0.3-0.4-0.6-0.4h-0.7c-0.3,0-0.5,0.2-0.6,0.4l-5.2,11.5c-0.1,0.2-0.1,0.5,0,0.6
	c0.1,0.2,0.3,0.3,0.6,0.3h0.7c0.3,0,0.5-0.2,0.6-0.4l1.3-2.9h5.8l1.3,2.9c0.1,0.2,0.4,0.4,0.6,0.4h0.7c0.2,0,0.4-0.1,0.6-0.3
	c0.1-0.2,0.1-0.4,0-0.7L108.8,43.7z M105.8,50.9l2-4.4l2,4.4H105.8z"/>
<path class="st0" d="M117.4,43.4h-0.7c-0.4,0-0.7,0.3-0.7,0.7v11.5c0,0.4,0.3,0.7,0.7,0.7h0.7c0.4,0,0.7-0.3,0.7-0.7V44
	C118,43.7,117.7,43.4,117.4,43.4z"/>
<path class="st0" d="M131.6,43.4h-0.7c-0.4,0-0.7,0.3-0.7,0.7v8.4l-6.4-8.8c-0.1-0.2-0.3-0.3-0.5-0.3h-0.8c-0.4,0-0.7,0.3-0.7,0.7
	v11.5c0,0.4,0.3,0.7,0.7,0.7h0.7c0.4,0,0.7-0.3,0.7-0.7v-8.4l6.4,8.8c0.1,0.2,0.3,0.3,0.5,0.3h0.8c0.4,0,0.7-0.3,0.7-0.7V44
	C132.2,43.7,131.9,43.4,131.6,43.4z"/>
<linearGradient id="SVGID_1_" gradientUnits="userSpaceOnUse" x1="17.3157" y1="38.1562" x2="115.916" y2="38.1562" gradientTransform="matrix(1 0 0 -1 0 57.89)">
	<stop  offset="0" style="stop-color:#54B6AE"/>
	<stop  offset="0.1" style="stop-color:#54B6AE"/>
	<stop  offset="0.3" style="stop-color:#3B98DA"/>
	<stop  offset="0.42" style="stop-color:#254A9A"/>
	<stop  offset="0.55" style="stop-color:#ED1443"/>
	<stop  offset="0.84" style="stop-color:#F25C19"/>
	<stop  offset="1" style="stop-color:#F25C19"/>
</linearGradient>
<path class="st1" d="M74.7,25.3v11.3h-2.1V23.8L74.7,25.3z M114.6,36.6h-8.1l-0.1-0.1l-7.1-7.1c-0.3-0.3-0.7-0.4-1.1-0.2
	c-0.4,0.2-0.6,0.5-0.6,1v6.5h-2.1v-16c0-0.3-0.1-0.6-0.3-0.8l-5.9-5.6c-0.2-0.2-0.4-0.3-0.7-0.3h-3c-0.6,0-1,0.5-1,1v21.7h-2.1V1.8
	c0-0.4-0.3-0.8-0.6-1c-0.4-0.2-0.8-0.1-1.1,0.2l-9.8,10.1c-0.2,0.2-0.3,0.5-0.3,0.7v7.8l-4-3c-0.4-0.3-0.9-0.3-1.3,0L56.2,24
	c-0.2,0.2-0.4,0.5-0.4,0.8v11.8h-2.1v-6.5c0-2.3-1.6-4.7-4.4-4.7c-2.9,0-4.4,2.4-4.4,4.7v6.5l-2.1,0v-4.4c0-1.8-1.2-3.7-3.5-3.7
	c-2.3,0-3.5,1.9-3.5,3.7v4.4l-2.1,0l0-0.2c0-0.9,0-2,0-2.5c0-1.5-1.4-2.8-3-2.8s-3,1.3-3,2.8v2.7l-9.1,0c-0.6,0-1,0.5-1,1
	c0,0.3,0.1,0.5,0.3,0.7c0.2,0.2,0.5,0.3,0.7,0.3l10.2,0c0.3,0,0.5-0.1,0.7-0.3c0.2-0.2,0.3-0.5,0.3-0.7v-3.5c0-0.4,0.4-1,1-1
	c0.6,0,1,0.5,1,1c0,0.3,0,3.5,0,3.5c0,0.6,0.5,1,1,1l4.1,0c0.6,0,1-0.5,1-1v-5.4c0-0.6,0.3-1.6,1.4-1.6c1.1,0,1.4,1.1,1.4,1.6v5.4
	c0,0.6,0.5,1,1,1l4.1,0c0.3,0,0.5-0.1,0.7-0.3c0.2-0.2,0.3-0.5,0.3-0.7v-7.5c0-0.9,0.5-2.7,2.4-2.7c1.8,0,2.4,1.6,2.4,2.6v7.5
	c0,0.6,0.5,1,1,1h4.1c0.6,0,1-0.5,1-1V25.3l0.1-0.1l8.1-6.5l4.6,3.5v15.4c0,0.6,0.5,1,1,1h4.1c0.6,0,1-0.5,1-1V24.8
	c0-0.3-0.2-0.6-0.4-0.8l-3.7-2.8v-8.9l0.1-0.1l7.7-7.9v33.3c0,0.6,0.5,1,1,1h4.2c0.6,0,1-0.5,1-1V16h1.5l0.1,0.1l5.2,5v16.6
	c0,0.6,0.5,1,1,1h4.2c0.6,0,1-0.5,1-1v-5l5.7,5.7c0.2,0.2,0.5,0.3,0.7,0.3h8.5c0.6,0,1-0.5,1-1C115.6,37,115.2,36.6,114.6,36.6z"/>
<path class="st2" d="M17.4,37.7l11.2,0c0-2-0.2-3.4,0.1-4.1c0.3-0.8,0.5-1,1.3-1.2c0.7-0.2,1.1-0.2,2,0.4c0.3,0.2,0.6,1,0.6,1.2
	c0,1.1,0,1.7,0,3.2c0,0.3-0.1,0.6,0,0.7c0.1,0.1,1,0,2.5,0c0.8,0,1.6,0.1,1.7,0c0.1-0.1,0-1.1,0-1.6c0-2.3-0.1-4,0.2-5
	c0.1-0.3,0.5-1.3,1.8-1.5c0.7-0.1,1.8,0,2.3,0.8c0.3,0.5,0.5,1,0.5,1.2c0.2,3.6,0.1,5.1,0.1,5.8c0,0.2,0,0.2,0.1,0.2
	c0,0.1,1.3,0,3.3,0c0.4,0,0.7,0,0.8,0c0.1-0.1,0-1.6,0-2.8c0-3.5-0.1-5.2,0-5.6c0.4-1.4,1.1-2,1.3-2.2c0.9-0.8,2.4-0.9,3.5-0.4
	c0.7,0.3,0.8,0.5,1.1,0.8c0.3,0.3,0.7,0.8,0.9,1.6c0.1,0.6,0.1,1.3,0.1,1.6c0,3.2,0,3.3,0,6.2c0,0.2-0.1,0.6,0,0.8c0,0.1,2.1,0,3,0
	c0.6,0,1.1,0.1,1.1,0c0.1-0.1,0-1.3,0-1.6c0-2.1,0-5.5,0-9.5c0-0.3-0.2-1.9,0.1-2c0.2,0,6.1-5.1,8.8-7.1c0.3-0.2,1.9,1.3,3,2
	c0.1,0.1,6.7,5.1,6.8,5.2c0.1,0.2-0.1,8.4,0,10.8c0,0.4,0.1,1.8,0,2c-0.1,0.1-3.7,0.1-4.1,0.1c-0.2,0-0.1-0.7-0.1-0.9
	c0-2.5,0-3.7,0-7.8c0-1.5,0.1-2.6,0.1-5.3c0-7.1-0.2-11.5,0-11.8c0.2-0.4,7.9-8.1,8-8.2c0.4-0.4,1.7-1.8,1.7-1.8c-0.1,2,0,6,0,9.6
	c0,8.9,0,8.4,0,17c0,3.3,0,9.1,0,9.1c0.1,0.1,1.9,0.1,2.1,0.1c1.3,0,2.1,0.1,2.1-0.1c0-0.3,0-2.9,0-3.6c0-8.2-0.1-18.9-0.1-19
	c0-0.1,2.1-0.1,2.8,0c0.1,0,0.3,0.1,0.4,0.1c0.5,0.4,3.2,3.1,3.7,3.5c0.4,0.3,2,1.8,2.1,2c0.1,0.3-0.1,9.6,0,15.8
	c0,0.1-0.1,1.1,0,1.2c0.1,0.1,1.3,0,2.8,0c1.1,0,1.4,0,1.4,0c0.2-0.2-0.1-7.4,0-7.5c0.2-0.2,0.4,0.3,0.6,0.5c2,2,6.7,6.8,6.9,6.9
	c0.2,0.1,5.2,0,10.1,0"/>
<path class="st3" d="M71.7,36.8c0.1-5.7,0-3.7-0.1-7.8"/>
</svg>
